REM DISCID 38051B04
REM COMMENT "ExactAudioCopy v0.95b3"
PERFORMER "BON-BON BLANCO"
TITLE "BON VOYAGE!(请秋切沏堑抂琡谴沁黔强悄)"
FILE "CDImage.ape" WAVE
  TRACK 01 AUDIO
    TITLE "Bon Voyage!"
    INDEX 01 00:00:00
  TRACK 02 AUDIO
    TITLE "畦莙乞荗旗I Love you,yet"
    INDEX 00 04:29:17
    INDEX 01 04:31:55
  TRACK 03 AUDIO
    TITLE "Bon Voyage! (Instrumental)"
    INDEX 00 07:42:26
    INDEX 01 07:46:05
